#tb 0: 2/25
0,          0,          0,        1,   202752, 0xe857d963
0,          1,          1,        1,   202752, 0xaf7503d8
0,          2,          2,        1,   202752, 0x99f04d65
0,          3,          3,        1,   202752, 0x95a4f5c7
0,          4,          4,        1,   202752, 0xb6858cd1
0,          5,          5,        1,   202752, 0x2cd15050
0,          6,          6,        1,   202752, 0xe90350bd
0,          7,          7,        1,   202752, 0x040e1405
0,          8,          8,        1,   202752, 0x6b68c254
0,          9,          9,        1,   202752, 0x252ed792
0,         10,         10,        1,   202752, 0x9e80ccce
0,         11,         11,        1,   202752, 0x45759807
0,         12,         12,        1,   202752, 0x2cacebb2
0,         13,         13,        1,   202752, 0x94de13e4
0,         14,         14,        1,   202752, 0xcbdd3b6d
0,         15,         15,        1,   202752, 0x93ee3f19
0,         16,         16,        1,   202752, 0xa9ff0798
0,         17,         17,        1,   202752, 0x4dce02e7
0,         18,         18,        1,   202752, 0x3da977c6
0,         19,         19,        1,   202752, 0x11aeb220
0,         20,         20,        1,   202752, 0x3d831198
0,         21,         21,        1,   202752, 0x335bcd4e
0,         22,         22,        1,   202752, 0x755a6589
0,         23,         23,        1,   202752, 0xbbf5ec97
0,         24,         24,        1,   202752, 0x9aa4bb3b
